<svg xmlns="http://www.w3.org/2000/svg" viewBox="0 0 24 24">
  <circle cx="12" cy="12" r="12" fill="#FFD800" stroke="#000000" stroke-width="0.75"/>
  <path d="M7 8c0-1.1.9-2 2-2h6c1.1 0 2 .9 2 2v8c0 1.1-.9 2-2 2H9c-1.1 0-2-.9-2-2V8zm1 0v3h8V8c0-.55-.45-1-1-1H9c-.55 0-1 .45-1 1zm0 4v4c0 .55.45 1 1 1h6c.55 0 1-.45 1-1v-4H8zm2 3c-.55 0-1-.45-1-1s.45-1 1-1 1 .45 1 1-.45 1-1 1zm4 0c-.55 0-1-.45-1-1s.45-1 1-1 1 .45 1 1-.45 1-1 1z" fill="#000000"/>
  <text x="12" y="6.5" text-anchor="middle" font-family="Arial" font-size="2.5" font-weight="bold" fill="#000000">NYC DOE</text>
</svg> 