<svg width="182" height="54" viewBox="0 0 182 54" fill="none" xmlns="http://www.w3.org/2000/svg">
<g clip-path="url(#clip0_298_5620)">
<path d="M27.7526 15.1543L49.0727 30.8381L48.4095 33.8492C47.4811 38.0514 45.5249 41.7903 42.9054 44.8675C36.8708 51.9484 27.2221 55.555 17.507 53.4043C11.7377 52.1139 6.79723 49.0036 3.21625 44.7021C0.331572 41.2278 3.54782 36.0992 7.95773 37.0918C8.98561 37.3234 9.88085 37.8528 10.544 38.647C12.6992 41.2609 15.6171 43.147 19.0322 44.0403C19.2312 44.0734 19.397 44.1396 19.5959 44.1727C23.8069 45.0992 27.9847 44.3381 31.433 42.3198C34.4172 40.5661 36.8377 37.919 38.2303 34.6102L22.0827 22.7646C20.5906 21.6396 19.8612 19.7536 20.2922 17.9337C21.0548 14.5587 25.0005 13.1028 27.7526 15.1543ZM27.0231 31.4999L10.8424 19.4227C12.235 16.1139 14.6887 13.4668 17.6396 11.7131C21.088 9.69475 25.2658 8.93372 29.4768 9.86019C33.1241 10.6874 36.2408 12.6396 38.4955 15.3528C39.1918 16.18 40.1202 16.7425 41.1813 16.9742C45.558 17.9668 48.7411 12.8381 45.8896 9.39695C42.3418 5.02931 37.335 1.91901 31.5657 0.628571C21.8506 -1.55525 12.2019 2.05137 6.16724 9.16534C3.54782 12.2425 1.6247 15.9815 0.663144 20.1837L0 23.1947L21.3533 39.1102C24.1053 41.1617 28.0842 39.7058 28.8136 36.3308C29.2447 34.5109 28.5484 32.6249 27.0231 31.4999Z" fill="black"/>
<path d="M42.9056 13.2019C42.7729 13.2019 42.6071 13.1357 42.5408 13.0033C42.5408 13.0033 42.3419 12.7055 41.9108 12.2092C41.7451 12.0107 41.7782 11.746 41.9772 11.5805C42.1761 11.4151 42.4414 11.4482 42.6071 11.6467C43.0382 12.1761 43.2703 12.507 43.2703 12.5401C43.4029 12.7386 43.3366 13.0033 43.1377 13.1357C43.0713 13.1688 42.9719 13.2019 42.9056 13.2019Z" fill="white"/>
<path d="M5.96684 18.2974C5.90052 18.2974 5.86736 18.2974 5.80105 18.2643C5.56895 18.165 5.46948 17.9334 5.53579 17.7018C5.80105 17.0069 6.09947 16.3121 6.43104 15.6172C6.53051 15.3856 6.79577 15.3194 7.02787 15.4187C7.25997 15.518 7.32628 15.7827 7.22681 16.0143C6.89524 16.676 6.59682 17.3378 6.36472 17.9996C6.33157 18.1981 6.13262 18.2974 5.96684 18.2974Z" fill="white"/>
<path d="M7.92397 14.3598C7.85765 14.3598 7.75818 14.3267 7.69187 14.2936C7.49292 14.1612 7.42661 13.8965 7.55924 13.698C7.95712 13.0693 8.42132 12.4407 8.88552 11.8782C9.05131 11.6796 9.31657 11.6465 9.51551 11.812C9.71446 11.9774 9.74761 12.2421 9.58183 12.4407C9.11763 13.0032 8.71974 13.5987 8.32185 14.1943C8.22238 14.2936 8.08975 14.3598 7.92397 14.3598Z" fill="white"/>
<path d="M10.7079 10.952C10.6084 10.952 10.4758 10.9189 10.4095 10.8197C10.2437 10.6542 10.2437 10.3564 10.4095 10.191C10.94 9.66156 11.5037 9.13215 12.0674 8.66892C12.2663 8.50348 12.5316 8.53656 12.6973 8.73509C12.8631 8.93362 12.83 9.19833 12.631 9.36377C12.0674 9.827 11.5368 10.2902 11.0395 10.8197C10.9069 10.8858 10.8074 10.952 10.7079 10.952Z" fill="white"/>
<path d="M40.7486 10.7864C40.6491 10.7864 40.5165 10.7534 40.4502 10.6541C39.9197 10.1578 39.3892 9.69453 38.7923 9.26438C38.5934 9.13203 38.5602 8.83424 38.6929 8.63571C38.8255 8.43718 39.1239 8.40409 39.3228 8.53644C39.9197 8.99968 40.5165 9.46291 41.047 9.99233C41.2128 10.1578 41.246 10.4225 41.0802 10.621C40.9807 10.7203 40.8481 10.7864 40.7486 10.7864Z" fill="white"/>
<path d="M14.1232 8.17228C13.9906 8.17228 13.8248 8.10611 13.7585 7.97375C13.6258 7.77522 13.6921 7.51052 13.8911 7.37817C14.5211 6.98111 15.1842 6.58405 15.8474 6.25317C16.0795 6.1539 16.3447 6.22008 16.4442 6.45169C16.5437 6.68331 16.4773 6.94802 16.2452 7.04728C15.6153 7.37817 14.9853 7.70905 14.3553 8.10611C14.289 8.13919 14.1895 8.17228 14.1232 8.17228Z" fill="white"/>
<path d="M37.2026 8.13965C37.1363 8.13965 37.0368 8.10656 36.9705 8.07347C36.3405 7.7095 35.7106 7.37862 35.0474 7.04773C34.8153 6.94847 34.7158 6.68376 34.8485 6.45215C34.9479 6.22053 35.2132 6.12126 35.4453 6.25362C36.1084 6.5845 36.8047 6.91538 37.4347 7.31244C37.6337 7.44479 37.7 7.7095 37.6005 7.90803C37.501 8.04038 37.3684 8.13965 37.2026 8.13965Z" fill="white"/>
<path d="M33.2202 6.25319C33.187 6.25319 33.1207 6.25319 33.0876 6.2201C32.4244 5.98848 31.7281 5.78995 30.9987 5.62451C30.7666 5.55833 30.6008 5.32672 30.6671 5.0951C30.7334 4.86348 30.9655 4.69804 31.1976 4.76422C31.9271 4.92966 32.6565 5.16127 33.3528 5.39289C33.5849 5.45907 33.7175 5.72377 33.6181 5.95539C33.5849 6.15392 33.386 6.25319 33.2202 6.25319Z" fill="white"/>
<path d="M18.0699 6.22036C17.9041 6.22036 17.7052 6.12109 17.6389 5.92256C17.5394 5.69095 17.672 5.42624 17.9041 5.36006C18.6004 5.09536 19.3299 4.89683 20.0594 4.6983C20.2915 4.63212 20.5236 4.79756 20.5899 5.02918C20.6562 5.2608 20.4904 5.49242 20.2583 5.55859C19.562 5.72403 18.8657 5.92256 18.2026 6.18727C18.1694 6.22036 18.1031 6.22036 18.0699 6.22036Z" fill="white"/>
<path d="M28.9455 5.22765C28.9124 5.22765 28.9124 5.22765 28.8792 5.22765C28.1829 5.12839 27.4535 5.06221 26.724 5.02912C26.4919 5.02912 26.293 4.79751 26.293 4.56589C26.293 4.33427 26.5251 4.13574 26.7572 4.13574C27.5198 4.16883 28.2492 4.23501 28.9787 4.36736C29.2108 4.40045 29.3766 4.63207 29.3434 4.86368C29.3434 5.06221 29.1445 5.22765 28.9455 5.22765Z" fill="white"/>
<path d="M22.3474 5.19457C22.1153 5.19457 21.9495 5.02912 21.9163 4.79751C21.8832 4.56589 22.049 4.33427 22.2811 4.30118C23.0105 4.20192 23.7731 4.13574 24.5358 4.13574C24.7679 4.13574 25 4.33427 25 4.56589C25 4.79751 24.801 5.02912 24.5689 5.02912C23.8395 5.06221 23.11 5.0953 22.4137 5.19457C22.3805 5.19457 22.3474 5.19457 22.3474 5.19457Z" fill="white"/>
<path d="M6.03332 22.1024C5.93385 22.1024 5.83438 22.0693 5.76806 22.0032L4.70703 21.209L4.74019 20.9443C4.77335 20.5804 4.83966 20.2164 4.90597 19.8524C4.97229 19.6208 5.20439 19.4554 5.43649 19.5215C5.66859 19.5877 5.83438 19.8193 5.76806 20.051C5.70175 20.3157 5.66859 20.5473 5.63543 20.812L6.26542 21.3083C6.46436 21.4407 6.49752 21.7385 6.36489 21.937C6.29858 22.0362 6.16595 22.1024 6.03332 22.1024Z" fill="white"/>
<path d="M21.616 33.8489C21.5165 33.8489 21.417 33.8158 21.3507 33.7496L19.7923 32.5915C19.5934 32.4592 19.5602 32.1614 19.6929 31.9629C19.8255 31.7643 20.1239 31.7312 20.3228 31.8636L21.8812 33.0217C22.0802 33.154 22.1133 33.4518 21.9807 33.6504C21.8812 33.7827 21.7486 33.8489 21.616 33.8489Z" fill="white"/>
<path d="M18.5007 31.4998C18.4013 31.4998 18.3018 31.4667 18.2355 31.4005L16.6771 30.2424C16.4782 30.1101 16.445 29.8123 16.5776 29.6137C16.7103 29.4152 17.0087 29.3821 17.2076 29.5145L18.766 30.6726C18.9649 30.8049 18.9981 31.1027 18.8655 31.3012C18.766 31.4336 18.6334 31.4998 18.5007 31.4998Z" fill="white"/>
<path d="M15.3836 29.1506C15.2841 29.1506 15.1846 29.1176 15.1183 29.0514L13.5599 27.8933C13.361 27.7609 13.3278 27.4631 13.4604 27.2646C13.5931 27.0661 13.8915 27.033 14.0904 27.1653L15.6488 28.3234C15.8478 28.4558 15.8809 28.7536 15.7483 28.9521C15.6488 29.0845 15.5162 29.1506 15.3836 29.1506Z" fill="white"/>
<path d="M12.2683 26.801C12.1688 26.801 12.0694 26.7679 12.0031 26.7018L10.4447 25.5437C10.2457 25.4113 10.2126 25.1135 10.3452 24.915C10.4778 24.7165 10.7762 24.6834 10.9752 24.8157L12.5336 25.9738C12.7325 26.1062 12.7657 26.404 12.633 26.6025C12.5336 26.7349 12.4009 26.801 12.2683 26.801Z" fill="white"/>
<path d="M9.14918 24.4519C9.04971 24.4519 8.95024 24.4188 8.88392 24.3526L7.32553 23.1946C7.12659 23.0622 7.09343 22.7644 7.22606 22.5659C7.35869 22.3674 7.65711 22.3343 7.85605 22.4666L9.41444 23.6247C9.61338 23.7571 9.64654 24.0549 9.51391 24.2534C9.41444 24.3857 9.28181 24.4519 9.14918 24.4519Z" fill="white"/>
<path d="M10.2761 23.0623C10.1767 23.0623 10.0772 23.0292 10.0109 22.963L8.45249 21.8049C8.25354 21.6726 8.22039 21.3748 8.35301 21.1762C8.48564 20.9777 8.78406 20.9446 8.983 21.077L10.5414 22.2351C10.7403 22.3674 10.7735 22.6652 10.6409 22.8637C10.5414 22.9961 10.4088 23.0623 10.2761 23.0623Z" fill="white"/>
<path d="M11.405 21.6394C11.3056 21.6394 11.2061 21.6063 11.1398 21.5401L9.58139 20.3821C9.38245 20.2497 9.34929 19.9519 9.48192 19.7534C9.61455 19.5549 9.91296 19.5218 10.1119 19.6541L11.6703 20.8122C11.8692 20.9446 11.9024 21.2424 11.7698 21.4409C11.6703 21.5732 11.5377 21.6394 11.405 21.6394Z" fill="white"/>
<path d="M6.92848 27.2644C6.82901 27.2644 6.72953 27.2313 6.66322 27.1651L5.10483 26.0071C4.90589 25.8747 4.87273 25.5769 5.00536 25.3784C5.13799 25.1799 5.4364 25.1468 5.63535 25.2791L7.19374 26.4372C7.39268 26.5696 7.42584 26.8674 7.29321 27.0659C7.19374 27.1982 7.06111 27.2644 6.92848 27.2644Z" fill="white"/>
<path d="M8.02223 25.8748C7.92276 25.8748 7.82328 25.8417 7.75697 25.7755L6.19858 24.6174C5.99964 24.4851 5.96648 24.1873 6.09911 23.9887C6.23174 23.7902 6.53015 23.7571 6.7291 23.8895L8.28749 25.0476C8.48643 25.1799 8.51959 25.4777 8.38696 25.6762C8.28749 25.8086 8.15486 25.8748 8.02223 25.8748Z" fill="white"/>
<path d="M24.0369 35.6686C23.9374 35.6686 23.8379 35.6355 23.7716 35.5693L22.9095 34.9407C22.7106 34.8083 22.6774 34.5105 22.81 34.312C22.9427 34.1134 23.2411 34.0804 23.44 34.2127L24.3021 34.8414C24.5011 34.9737 24.5342 35.2715 24.4016 35.4701C24.3021 35.6024 24.1695 35.6686 24.0369 35.6686Z" fill="white"/>
<path d="M6.20131 40.665C6.33394 40.665 6.49972 40.7312 6.56604 40.8636C6.56604 40.8636 6.76498 41.1614 7.19603 41.6577C7.36181 41.8562 7.32865 42.1209 7.12971 42.2864C6.93077 42.4518 6.66551 42.4187 6.49972 42.2202C6.06868 41.6908 5.83658 41.3599 5.83658 41.3268C5.70395 41.1283 5.77026 40.8636 5.96921 40.7312C6.03552 40.665 6.13499 40.665 6.20131 40.665Z" fill="white"/>
<path d="M43.1368 35.5366C43.2031 35.5366 43.2362 35.5366 43.3026 35.5697C43.5347 35.669 43.6341 35.9006 43.5678 36.1322C43.3026 36.8271 43.0041 37.5219 42.6726 38.2168C42.5731 38.4484 42.3078 38.5146 42.0757 38.4153C41.8436 38.316 41.7773 38.0513 41.8768 37.8197C42.2084 37.1579 42.5068 36.4962 42.7389 35.8344C42.8052 35.669 42.971 35.5366 43.1368 35.5366Z" fill="white"/>
<path d="M41.182 39.4741C41.2483 39.4741 41.3478 39.5072 41.4141 39.5403C41.613 39.6726 41.6793 39.9374 41.5467 40.1359C41.1488 40.7646 40.6846 41.3932 40.2204 41.9557C40.0546 42.1543 39.7894 42.1874 39.5904 42.0219C39.3915 41.8565 39.3583 41.5918 39.5241 41.3932C39.9883 40.8307 40.3862 40.2352 40.7841 39.6396C40.8836 39.5403 41.0162 39.4741 41.182 39.4741Z" fill="white"/>
<path d="M38.4315 42.9155C38.531 42.9155 38.6636 42.9486 38.7299 43.0479C38.8957 43.2133 38.8957 43.5111 38.7299 43.6766C38.1994 44.206 37.6357 44.7354 37.0721 45.1986C36.8731 45.3641 36.6079 45.331 36.4421 45.1324C36.2763 44.9339 36.3095 44.6692 36.5084 44.5038C37.0721 44.0405 37.6026 43.5773 38.0999 43.0479C38.1994 42.9486 38.2989 42.9155 38.4315 42.9155Z" fill="white"/>
<path d="M8.38979 43.0806C8.48926 43.0806 8.62189 43.1137 8.6882 43.2129C9.21872 43.7092 9.74923 44.1725 10.3461 44.6026C10.545 44.735 10.5782 45.0328 10.4455 45.2313C10.3129 45.4298 10.0145 45.4629 9.81555 45.3306C9.21872 44.8673 8.62189 44.4041 8.09137 43.8747C7.92559 43.7092 7.89243 43.4445 8.05821 43.246C8.15769 43.1137 8.25716 43.0806 8.38979 43.0806Z" fill="white"/>
<path d="M35.0142 45.6948C35.1468 45.6948 35.3126 45.761 35.3789 45.8934C35.5116 46.0919 35.4453 46.3566 35.2463 46.4889C34.6163 46.886 33.9532 47.2831 33.29 47.6139C33.0579 47.7132 32.7927 47.647 32.6932 47.4154C32.5937 47.1838 32.66 46.9191 32.8921 46.8198C33.5221 46.4889 34.1521 46.1581 34.7821 45.761C34.8484 45.7279 34.9147 45.6948 35.0142 45.6948Z" fill="white"/>
<path d="M11.9045 45.728C11.9708 45.728 12.0703 45.7611 12.1366 45.7942C12.7666 46.1582 13.3966 46.4891 14.0597 46.8199C14.2918 46.9192 14.3913 47.1839 14.2587 47.4155C14.1592 47.6471 13.894 47.7464 13.6619 47.6141C12.9987 47.2832 12.3024 46.9523 11.6724 46.5552C11.4735 46.4229 11.4072 46.1582 11.5066 45.9596C11.6061 45.7942 11.7387 45.728 11.9045 45.728Z" fill="white"/>
<path d="M15.8825 47.5806C15.9156 47.5806 15.9819 47.5806 16.0151 47.6137C16.6782 47.8453 17.3745 48.0438 18.104 48.2092C18.3361 48.2754 18.5019 48.507 18.4356 48.7387C18.3693 48.9703 18.1372 49.1357 17.9051 49.0695C17.1756 48.9041 16.4461 48.6725 15.7498 48.4409C15.5177 48.3747 15.3851 48.11 15.4846 47.8784C15.5509 47.7129 15.7167 47.5806 15.8825 47.5806Z" fill="white"/>
<path d="M31.0698 47.647C31.2356 47.647 31.4346 47.7462 31.5009 47.9448C31.6004 48.1764 31.4677 48.4411 31.2356 48.5073C30.5393 48.772 29.8099 48.9705 29.0804 49.169C28.8483 49.2352 28.6162 49.0698 28.5499 48.8382C28.4836 48.6065 28.6494 48.3749 28.8815 48.3087C29.5778 48.1433 30.2741 47.9448 30.9372 47.6801C30.9704 47.647 31.0035 47.647 31.0698 47.647Z" fill="white"/>
<path d="M20.1599 48.6064C20.1931 48.6064 20.1931 48.6064 20.2262 48.6064C20.9225 48.7057 21.652 48.7719 22.3815 48.805C22.6136 48.805 22.8125 49.0366 22.8125 49.2682C22.8125 49.4998 22.5804 49.6984 22.3483 49.6984C21.5857 49.6653 20.8562 49.5991 20.1268 49.4667C19.8947 49.4337 19.7289 49.202 19.762 48.9704C19.762 48.7719 19.961 48.6064 20.1599 48.6064Z" fill="white"/>
<path d="M26.758 48.6729C26.9901 48.6729 27.1559 48.8383 27.1891 49.0699C27.2222 49.3015 27.0565 49.5331 26.8244 49.5662C26.0949 49.6655 25.3323 49.7317 24.5697 49.7317C24.3376 49.7317 24.1055 49.5331 24.1055 49.3015C24.1055 49.0699 24.3044 48.8383 24.5365 48.8383C25.266 48.8052 25.9954 48.7721 26.6917 48.6729C26.7249 48.6729 26.758 48.6729 26.758 48.6729Z" fill="white"/>
<path d="M43.0713 31.7314C43.1708 31.7314 43.2702 31.7645 43.3366 31.8307L44.3976 32.6248L44.3644 32.8895C44.3313 33.2535 44.265 33.6175 44.1987 33.9814C44.1323 34.2131 43.9002 34.3785 43.6681 34.3123C43.436 34.2461 43.2702 34.0145 43.3366 33.7829C43.4029 33.5182 43.436 33.2866 43.4692 33.0219L42.8392 32.5256C42.6403 32.3932 42.6071 32.0954 42.7397 31.8969C42.806 31.7976 42.9387 31.7314 43.0713 31.7314Z" fill="white"/>
<path d="M27.4873 20.0181C27.5867 20.0181 27.6862 20.0512 27.7525 20.1173L29.3109 21.2754C29.5099 21.4078 29.543 21.7056 29.4104 21.9041C29.2778 22.1026 28.9794 22.1357 28.7804 22.0034L27.222 20.8453C27.0231 20.7129 26.9899 20.4151 27.1225 20.2166C27.222 20.0512 27.3546 20.0181 27.4873 20.0181Z" fill="white"/>
<path d="M30.6045 22.3672C30.7039 22.3672 30.8034 22.4003 30.8697 22.4665L32.4281 23.6245C32.6271 23.7569 32.6602 24.0547 32.5276 24.2532C32.395 24.4517 32.0965 24.4848 31.8976 24.3525L30.3392 23.1613C30.1403 23.029 30.1071 22.7312 30.2397 22.5326C30.3392 22.4003 30.4718 22.3672 30.6045 22.3672Z" fill="white"/>
<path d="M33.7216 24.7168C33.8211 24.7168 33.9206 24.7499 33.9869 24.8161L35.5453 25.9742C35.7442 26.1065 35.7774 26.4043 35.6448 26.6028C35.5121 26.8014 35.2137 26.8344 35.0148 26.7021L33.4564 25.544C33.2575 25.4116 33.2243 25.1139 33.3569 24.9153C33.4564 24.7499 33.589 24.7168 33.7216 24.7168Z" fill="white"/>
<path d="M36.8388 27.0327C36.9383 27.0327 37.0378 27.0658 37.1041 27.132L38.6625 28.2901C38.8614 28.4224 38.8946 28.7202 38.762 28.9187C38.6293 29.1173 38.3309 29.1504 38.132 29.018L36.5736 27.8599C36.3746 27.7276 36.3415 27.4298 36.4741 27.2312C36.5736 27.0989 36.7062 27.0327 36.8388 27.0327Z" fill="white"/>
<path d="M39.956 29.3818C40.0555 29.3818 40.155 29.4149 40.2213 29.4811L41.7797 30.6392C41.9786 30.7715 42.0118 31.0693 41.8791 31.2679C41.7465 31.4664 41.4481 31.4995 41.2492 31.3671L39.6908 30.209C39.4918 30.0767 39.4587 29.7789 39.5913 29.5804C39.6908 29.448 39.8234 29.3818 39.956 29.3818Z" fill="white"/>
<path d="M38.8603 30.8047C38.9598 30.8047 39.0593 30.8378 39.1256 30.904L40.684 32.062C40.8829 32.1944 40.9161 32.4922 40.7834 32.6907C40.6508 32.8892 40.3524 32.9223 40.1535 32.79L38.5951 31.6319C38.3961 31.4995 38.363 31.2017 38.4956 31.0032C38.5951 30.8709 38.7277 30.8047 38.8603 30.8047Z" fill="white"/>
<path d="M37.7021 32.2275C37.8016 32.2275 37.9011 32.2606 37.9674 32.3268L39.5258 33.4849C39.7247 33.6172 39.7579 33.915 39.6252 34.1136C39.4926 34.3121 39.1942 34.3452 38.9953 34.2128L37.4369 33.0547C37.2379 32.9224 37.2048 32.6246 37.3374 32.4261C37.4369 32.2606 37.5695 32.2275 37.7021 32.2275Z" fill="white"/>
<path d="M42.2099 26.5693C42.3094 26.5693 42.4089 26.6024 42.4752 26.6686L44.0336 27.8267C44.2325 27.959 44.2657 28.2568 44.1331 28.4554C44.0004 28.6539 43.702 28.687 43.5031 28.5546L41.9447 27.3965C41.7457 27.2642 41.7126 26.9664 41.8452 26.7679C41.9447 26.6355 42.0773 26.5693 42.2099 26.5693Z" fill="white"/>
<path d="M41.1162 27.9595C41.2157 27.9595 41.3151 27.9926 41.3814 28.0587L42.9398 29.2168C43.1388 29.3492 43.1719 29.647 43.0393 29.8455C42.9067 30.044 42.6083 30.0771 42.4093 29.9448L40.8509 28.7867C40.652 28.6543 40.6188 28.3565 40.7515 28.158C40.8509 28.0256 40.9836 27.9595 41.1162 27.9595Z" fill="white"/>
<path d="M25.0674 18.1982C25.1668 18.1982 25.2663 18.2313 25.3326 18.2975L26.1947 18.9262C26.3936 19.0585 26.4268 19.3563 26.2942 19.5549C26.1615 19.7534 25.8631 19.7865 25.6642 19.6541L24.8021 19.0254C24.6032 18.8931 24.57 18.5953 24.7026 18.3968C24.8021 18.2644 24.9347 18.1982 25.0674 18.1982Z" fill="white"/>
<path d="M58.3574 35.2392L59.2527 33.4524C60.8111 34.9745 63.5963 36.0995 66.4478 36.0995C70.5261 36.0995 72.3166 34.3789 72.3166 32.2612C72.3166 26.3053 58.8879 29.9451 58.8879 21.9046C58.8879 18.6951 61.3747 15.9487 66.912 15.9487C69.3656 15.9487 71.9187 16.6767 73.6761 17.8678L72.9134 19.6877C71.0566 18.4634 68.8683 17.9009 66.9451 17.9009C62.9663 17.9009 61.1758 19.6877 61.1758 21.8384C61.1758 27.7943 74.6045 24.1877 74.6045 32.1289C74.6045 35.3384 72.0514 38.0517 66.4809 38.0517C63.1652 38.0848 59.949 36.9267 58.3574 35.2392ZM94.9962 35.9009V37.8862H79.578V16.1142H94.532V18.0995H81.899V25.8421H93.1725V27.7943H81.899V35.8678H94.9962V35.9009ZM118.637 16.1142V37.8531H116.747L102.722 20.2171V37.8531H100.401V16.1142H102.291L116.349 33.7502V16.1142H118.637ZM129.977 18.1326H122.318V16.1473H139.924V18.1326H132.265V37.8862H129.944V18.1326H129.977ZM158.492 37.8862L153.519 30.9046C152.955 30.9708 152.391 31.0039 151.761 31.0039H145.892V37.8862H143.605V16.1142H151.761C157.299 16.1142 160.681 18.9267 160.681 23.559C160.681 26.9671 158.89 29.3826 155.707 30.4083L161.045 37.8531H158.492V37.8862ZM158.36 23.5921C158.36 20.1178 156.039 18.1326 151.695 18.1326H145.892V29.0517H151.695C156.072 29.0186 158.36 27.0002 158.36 23.5921ZM173.28 30.3752V37.8862H170.993V30.3752L162.272 16.1473H164.726L172.186 28.3568L179.713 16.1142H182.034L173.28 30.3752Z" fill="black"/>
</g>
<defs>
<clipPath id="clip0_298_5620">
<rect width="182" height="54" fill="white"/>
</clipPath>
</defs>
</svg>
