<svg xmlns="http://www.w3.org/2000/svg" width="95" height="32" viewBox="0 0 95 32">
  <style>
    .sentry-logo { fill: currentColor; }
    .sentry-icon { fill: #362d59; } /* Dark purple in light mode */
    
    /* Automatically adjust for dark mode */
    @media (prefers-color-scheme: dark) {
      .sentry-icon { fill: #6C5FC7; } /* Lighter purple in dark mode */
    }
    
    /* Class-based dark mode (controlled by our JS) */
    .dark-theme .sentry-icon { fill: #6C5FC7; }
  </style>
  
  <!-- Sentry Icon -->
  <path class="sentry-icon" d="M16,0 C24.8,0 32,7.2 32,16 C32,24.8 24.8,32 16,32 C7.2,32 0,24.8 0,16 C0,7.2 7.2,0 16,0 Z M16,4 C9.4,4 4,9.4 4,16 C4,22.6 9.4,28 16,28 C22.6,28 28,22.6 28,16 C28,9.4 22.6,4 16,4 Z M22,11 L22,21 L19,21 L19,14 L13,14 L13,21 L10,21 L10,11 L22,11 Z"/>
  
  <!-- Sentry Text -->
  <g transform="translate(38, 20)" class="sentry-logo">
    <path d="M0,-8.5 L3,-8.5 L3,0 L0,0 L0,-8.5 Z M5,-8.5 L8,-8.5 L8,-5 C8.5,-5.7 9,-6.2 9.6,-6.5 C10.2,-6.8 10.9,-7 11.7,-7 C12.5,-7 13.2,-6.8 13.8,-6.5 C14.4,-6.2 14.9,-5.7 15.2,-5.1 C15.5,-4.5 15.7,-3.8 15.7,-3 L15.7,0 L12.7,0 L12.7,-2.5 C12.7,-3 12.6,-3.4 12.3,-3.7 C12,-4 11.6,-4.1 11.2,-4.1 C10.7,-4.1 10.3,-4 10,-3.7 C9.7,-3.4 9.5,-3 9.5,-2.5 L9.5,0 L6.5,0 L6.5,-8.5 L8,-8.5 Z M18,-8.5 L21,-8.5 L21,-5 C21.5,-5.7 22,-6.2 22.6,-6.5 C23.2,-6.8 23.9,-7 24.7,-7 C25.5,-7 26.2,-6.8 26.8,-6.5 C27.4,-6.2 27.9,-5.7 28.2,-5.1 C28.5,-4.5 28.7,-3.8 28.7,-3 L28.7,0 L25.7,0 L25.7,-2.5 C25.7,-3 25.6,-3.4 25.3,-3.7 C25,-4 24.6,-4.1 24.2,-4.1 C23.7,-4.1 23.3,-4 23,-3.7 C22.7,-3.4 22.5,-3 22.5,-2.5 L22.5,0 L19.5,0 L19.5,-8.5 L21,-8.5 Z M30.5,-4.2 C30.5,-5.2 30.7,-6 31.2,-6.7 C31.7,-7.4 32.3,-7.9 33.1,-8.2 C33.9,-8.5 34.8,-8.7 35.8,-8.7 C36.8,-8.7 37.7,-8.5 38.5,-8.2 C39.3,-7.9 39.9,-7.4 40.4,-6.7 C40.9,-6 41.1,-5.2 41.1,-4.2 C41.1,-3.3 40.9,-2.4 40.4,-1.7 C39.9,-1 39.3,-0.5 38.5,-0.2 C37.7,0.1 36.8,0.3 35.8,0.3 C34.8,0.3 33.9,0.1 33.1,-0.2 C32.3,-0.5 31.7,-1 31.2,-1.7 C30.7,-2.4 30.5,-3.3 30.5,-4.2 Z M33.5,-4.2 C33.5,-3.7 33.7,-3.3 34,-3 C34.3,-2.7 35,-2.5 35.8,-2.5 C36.6,-2.5 37.2,-2.7 37.6,-3 C38,-3.3 38.1,-3.7 38.1,-4.2 C38.1,-4.8 37.9,-5.2 37.6,-5.5 C37.3,-5.8 36.6,-6 35.8,-6 C35,-6 34.4,-5.8 34,-5.5 C33.7,-5.2 33.5,-4.8 33.5,-4.2 Z M44.5,-10.6 L47.5,-10.6 L47.5,-7.1 L49.5,-7.1 L49.5,-4.6 L47.5,-4.6 L47.5,0 L44.5,0 L44.5,-4.6 L43,-4.6 L43,-7.1 L44.5,-7.1 L44.5,-10.6 Z M54.2,-7 C55.4,-7 56.4,-6.7 57.3,-6.1 C58.2,-5.5 58.6,-4.6 58.7,-3.3 L55.8,-3.3 C55.7,-3.7 55.6,-4 55.3,-4.2 C55,-4.4 54.7,-4.5 54.3,-4.5 C54,-4.5 53.7,-4.4 53.5,-4.3 C53.3,-4.2 53.2,-4 53.2,-3.8 C53.2,-3.5 53.3,-3.3 53.6,-3.2 C53.9,-3.1 54.4,-3 55,-2.9 C55.7,-2.8 56.3,-2.7 56.9,-2.5 C57.5,-2.3 58,-2 58.3,-1.6 C58.6,-1.2 58.8,-0.6 58.8,0.1 C58.8,0.6 58.6,1.1 58.3,1.5 C58,1.9 57.5,2.2 57,2.4 C56.5,2.6 55.9,2.7 55.2,2.7 C54,2.7 53,2.4 52.1,1.9 C51.2,1.4 50.7,0.6 50.6,-0.4 L53.6,-0.4 C53.7,0 53.8,0.3 54.1,0.5 C54.4,0.7 54.7,0.8 55.1,0.8 C55.4,0.8 55.7,0.7 55.9,0.6 C56.1,0.5 56.2,0.3 56.2,0.1 C56.2,-0.2 56.1,-0.4 55.8,-0.5 C55.5,-0.6 55,-0.7 54.4,-0.8 C53.7,-0.9 53.1,-1 52.5,-1.2 C51.9,-1.4 51.4,-1.7 51.1,-2.1 C50.8,-2.5 50.6,-3 50.6,-3.7 C50.6,-4.2 50.7,-4.7 51,-5.1 C51.3,-5.5 51.7,-5.8 52.2,-6 C52.7,-6.2 53.3,-6.3 54,-6.3 L54.2,-7 Z"/>
  </g>
</svg> 